# xmcd
#
# Track frame offsets: 
#        150
#        19749
#        38763
#        56552
#        70995
#        90009
#        107518
#        140350
#        164045
#        184425
#        200014
#        215798
#        228936
#
# Disc length: 3282 seconds
#
# Revision: 0
# Processed by: cddbd v1.5.2PL0 Copyright (c) Steve Scherf et al.
# Submitted via: ExactAudioCopyFreeDBPlugin 1.0
#
DISCID=b70cd00d
DTITLE=Sharrie Williams - I'm a real woman
DYEAR=2002
DGENRE=Soul
TTITLE0=Princess of the blues
TTITLE1=I've got find me a mojo
TTITLE2=What kind of a man is this
TTITLE3=Talking ain't bothering me a bit
TTITLE4=All cried out
TTITLE5=Although I sing the blues
TTITLE6=Blues as blues
TTITLE7=I'm a real woman
TTITLE8=Why didn't your mama tell you
TTITLE9=Strong hold
TTITLE10=What's wrong with you
TTITLE11=Standing on a shaky ground
TTITLE12=Play the music of your soul
EXTD=
EXTT0=
EXTT1=
EXTT2=
EXTT3=
EXTT4=
EXTT5=
EXTT6=
EXTT7=
EXTT8=
EXTT9=
EXTT10=
EXTT11=
EXTT12=
PLAYORDER=
